<?xml version="1.0" encoding="UTF-8"?>
<svg xmlns="http://www.w3.org/2000/svg" xmlns:xlink="http://www.w3.org/1999/xlink" width="303px" height="150px" viewBox="0 0 303 150" version="1.1">
<g id="surface1">
<path style=" stroke:none;fill-rule:nonzero;fill:rgb(13.333334%,13.333334%,13.333334%);fill-opacity:1;" d="M 55.121094 84.679688 C 55.121094 86.511719 54.96875 88.359375 54.675781 90.238281 C 54.378906 92.128906 53.871094 93.882812 53.164062 95.507812 C 52.445312 97.148438 51.457031 98.617188 50.195312 99.925781 C 48.949219 101.230469 47.371094 102.238281 45.429688 102.957031 L 45.207031 102.324219 C 47.960938 101.207031 49.863281 99.5 50.921875 97.210938 C 51.972656 94.941406 52.5 92.421875 52.5 89.667969 C 52.5 88.46875 52.421875 87.292969 52.277344 86.132812 C 52.152344 84.980469 51.964844 83.796875 51.710938 82.597656 L 51.363281 80.640625 C 51.175781 79.488281 50.992188 78.335938 50.828125 77.199219 C 50.652344 76.046875 50.574219 74.855469 50.574219 73.632812 C 50.574219 72.542969 50.621094 71.46875 50.730469 70.414062 C 50.859375 69.339844 51.03125 68.28125 51.269531 67.226562 C 49.730469 67.3125 48.246094 67.667969 46.820312 68.296875 C 45.367188 68.929688 44.089844 69.773438 42.96875 70.824219 L 42.117188 70.761719 C 43.503906 69.496094 44.949219 68.511719 46.441406 67.792969 C 47.929688 67.082031 49.644531 66.59375 51.585938 66.339844 C 52.972656 61.542969 55.347656 57.992188 58.71875 55.671875 C 62.078125 53.359375 66.230469 52.199219 71.152344 52.199219 L 77.78125 52.199219 C 76.722656 52.5 76.015625 53.066406 75.636719 53.90625 C 75.273438 54.75 75.097656 55.640625 75.097656 56.585938 L 75.097656 82.976562 C 75.097656 83.988281 75.273438 84.925781 75.636719 85.785156 C 76.015625 86.652344 76.722656 87.253906 77.78125 87.585938 L 68.027344 87.585938 C 69.140625 87.292969 69.875 86.699219 70.238281 85.816406 C 70.59375 84.933594 70.773438 83.988281 70.773438 82.976562 L 70.773438 77.261719 C 70.773438 76.78125 70.679688 76.316406 70.492188 75.875 C 69.8125 74.445312 68.914062 73.207031 67.777344 72.148438 C 66.640625 71.074219 65.386719 70.183594 64.019531 69.464844 C 62.648438 68.730469 61.210938 68.1875 59.695312 67.824219 C 58.179688 67.46875 56.671875 67.273438 55.183594 67.226562 C 54.945312 68.28125 54.789062 69.332031 54.710938 70.382812 C 54.644531 71.414062 54.613281 72.457031 54.613281 73.507812 C 54.613281 74.183594 54.621094 74.886719 54.644531 75.621094 C 54.660156 76.339844 54.691406 77.035156 54.742188 77.703125 L 54.960938 80.515625 C 55 81.191406 55.03125 81.871094 55.054688 82.566406 C 55.09375 83.261719 55.121094 83.96875 55.121094 84.679688 Z M 55.339844 66.339844 C 56.871094 66.40625 58.402344 66.648438 59.917969 67.066406 C 61.433594 67.46875 62.867188 68.03125 64.242188 68.738281 C 65.605469 69.457031 66.859375 70.351562 67.996094 71.421875 C 69.132812 72.480469 70.054688 73.695312 70.773438 75.085938 L 70.773438 56.585938 C 70.773438 56.207031 70.757812 55.820312 70.742188 55.417969 C 70.71875 55 70.632812 54.613281 70.492188 54.25 C 70.339844 53.894531 70.121094 53.605469 69.828125 53.367188 C 69.550781 53.113281 69.171875 52.988281 68.691406 52.988281 C 66.859375 52.988281 65.195312 53.382812 63.703125 54.15625 C 62.207031 54.914062 60.894531 55.941406 59.757812 57.21875 C 58.621094 58.503906 57.683594 59.949219 56.949219 61.542969 C 56.207031 63.121094 55.671875 64.722656 55.339844 66.339844 Z M 55.339844 66.339844 "/>
<path style=" stroke:none;fill-rule:nonzero;fill:rgb(13.333334%,13.333334%,13.333334%);fill-opacity:1;" d="M 102.253906 75.527344 C 102.253906 79.425781 101.339844 82.464844 99.507812 84.648438 C 97.679688 86.84375 94.71875 87.933594 90.640625 87.933594 C 86.488281 87.933594 83.347656 86.859375 81.203125 84.710938 C 79.054688 82.550781 77.984375 79.363281 77.984375 75.148438 L 77.984375 56.585938 C 77.984375 55.640625 77.808594 54.75 77.476562 53.90625 C 77.140625 53.066406 76.445312 52.5 75.394531 52.199219 L 84.925781 52.199219 C 83.917969 52.5 83.238281 53.066406 82.90625 53.90625 C 82.566406 54.75 82.402344 55.640625 82.402344 56.585938 L 82.402344 74.738281 C 82.402344 76.277344 82.574219 77.761719 82.9375 79.1875 C 83.292969 80.601562 83.871094 81.855469 84.675781 82.945312 C 85.472656 84.019531 86.480469 84.886719 87.703125 85.53125 C 88.941406 86.1875 90.425781 86.511719 92.15625 86.511719 C 93.835938 86.511719 95.28125 86.226562 96.480469 85.660156 C 97.679688 85.074219 98.664062 84.285156 99.445312 83.292969 C 100.21875 82.304688 100.789062 81.136719 101.148438 79.789062 C 101.503906 78.445312 101.6875 77.003906 101.6875 75.464844 L 101.6875 57.472656 C 101.6875 54.78125 100.359375 53.019531 97.710938 52.199219 L 106.167969 52.199219 C 103.558594 53.019531 102.253906 54.78125 102.253906 57.472656 Z M 102.253906 75.527344 "/>
<path style=" stroke:none;fill-rule:nonzero;fill:rgb(13.333334%,13.333334%,13.333334%);fill-opacity:1;" d="M 121.164062 82.976562 C 121.164062 83.921875 121.328125 84.855469 121.667969 85.753906 C 122.023438 86.636719 122.726562 87.253906 123.78125 87.585938 L 114.1875 87.585938 C 115.277344 87.253906 115.988281 86.652344 116.300781 85.785156 C 116.617188 84.925781 116.777344 83.988281 116.777344 82.976562 L 116.839844 52.988281 L 113.460938 52.988281 C 111.519531 52.988281 109.746094 53.492188 108.128906 54.503906 C 106.527344 55.515625 105.261719 56.863281 104.339844 58.542969 L 105.570312 52.199219 L 132.367188 52.199219 L 133.660156 58.480469 C 132.753906 56.886719 131.484375 55.570312 129.84375 54.535156 C 128.203125 53.507812 126.441406 52.988281 124.570312 52.988281 L 121.164062 52.988281 Z M 121.164062 82.976562 "/>
<path style=" stroke:none;fill-rule:nonzero;fill:rgb(13.333334%,13.333334%,13.333334%);fill-opacity:1;" d="M 167.910156 69.875 C 167.910156 72.339844 167.433594 74.660156 166.488281 76.820312 C 165.542969 78.992188 164.253906 80.886719 162.636719 82.503906 C 161.035156 84.105469 159.148438 85.375 156.988281 86.320312 C 154.816406 87.269531 152.515625 87.742188 150.074219 87.742188 C 147.613281 87.742188 145.292969 87.269531 143.132812 86.320312 C 140.960938 85.375 139.070312 84.105469 137.449219 82.503906 C 135.847656 80.886719 134.578125 78.992188 133.632812 76.820312 C 132.683594 74.660156 132.210938 72.339844 132.210938 69.875 C 132.210938 67.4375 132.683594 65.132812 133.632812 62.964844 C 134.578125 60.800781 135.847656 58.914062 137.449219 57.3125 C 139.070312 55.695312 140.960938 54.410156 143.132812 53.460938 C 145.292969 52.515625 147.613281 52.042969 150.074219 52.042969 C 152.515625 52.042969 154.816406 52.515625 156.988281 53.460938 C 159.148438 54.410156 161.035156 55.695312 162.636719 57.3125 C 164.253906 58.914062 165.542969 60.800781 166.488281 62.964844 C 167.433594 65.132812 167.910156 67.4375 167.910156 69.875 Z M 137.199219 69.023438 C 137.199219 70.902344 137.515625 72.90625 138.144531 75.054688 C 138.777344 77.199219 139.675781 79.179688 140.859375 80.988281 C 142.035156 82.777344 143.480469 84.269531 145.183594 85.46875 C 146.886719 86.652344 148.820312 87.238281 150.992188 87.238281 C 153.011719 87.238281 154.785156 86.71875 156.324219 85.660156 C 157.878906 84.585938 159.167969 83.230469 160.175781 81.585938 C 161.1875 79.945312 161.945312 78.171875 162.449219 76.253906 C 162.953125 74.320312 163.207031 72.488281 163.207031 70.761719 C 163.207031 68.789062 162.898438 66.742188 162.289062 64.636719 C 161.699219 62.515625 160.792969 60.558594 159.578125 58.765625 C 158.378906 56.980469 156.925781 55.515625 155.222656 54.378906 C 153.515625 53.226562 151.527344 52.640625 149.253906 52.640625 C 147.234375 52.640625 145.476562 53.171875 143.984375 54.21875 C 142.484375 55.277344 141.238281 56.617188 140.230469 58.261719 C 139.21875 59.902344 138.460938 61.683594 137.957031 63.59375 C 137.449219 65.488281 137.199219 67.304688 137.199219 69.023438 Z M 137.199219 69.023438 "/>
<path style=" stroke:none;fill-rule:nonzero;fill:rgb(13.333334%,13.333334%,13.333334%);fill-opacity:1;" d="M 183.132812 82.753906 C 183.703125 84.445312 184.308594 86.226562 184.964844 88.121094 C 185.609375 90.03125 186.367188 91.925781 187.238281 93.804688 C 188.097656 95.671875 189.050781 97.464844 190.109375 99.167969 C 191.183594 100.875 192.414062 102.390625 193.800781 103.714844 C 195.207031 105.039062 196.769531 106.097656 198.472656 106.902344 C 200.175781 107.699219 202.109375 108.101562 204.28125 108.101562 L 204.28125 108.828125 C 200.761719 108.828125 197.683594 108.195312 195.03125 106.933594 C 192.398438 105.6875 190.085938 104 188.089844 101.851562 C 186.085938 99.707031 184.332031 97.210938 182.816406 94.371094 C 181.304688 91.53125 179.921875 88.5 178.683594 85.28125 C 177.460938 82.046875 176.292969 78.730469 175.179688 75.335938 C 174.082031 71.953125 172.921875 68.660156 171.707031 65.457031 C 170.507812 62.261719 169.191406 59.230469 167.761719 56.367188 C 166.351562 53.484375 164.710938 50.984375 162.839844 48.855469 C 160.96875 46.707031 158.792969 45.027344 156.304688 43.804688 C 153.828125 42.5625 150.941406 41.941406 147.65625 41.941406 L 147.65625 41.277344 C 151.277344 41.277344 154.539062 41.902344 157.441406 43.140625 C 160.328125 44.363281 162.894531 46.011719 165.144531 48.097656 C 167.414062 50.164062 169.433594 52.546875 171.203125 55.261719 C 172.984375 57.976562 174.582031 60.839844 175.96875 63.847656 C 177.375 66.863281 178.628906 69.925781 179.726562 73.03125 C 180.835938 76.148438 181.878906 79.09375 182.847656 81.871094 C 183.078125 81.304688 183.488281 80.285156 184.082031 78.808594 C 184.6875 77.34375 185.390625 75.667969 186.195312 73.789062 C 186.992188 71.921875 187.820312 69.964844 188.6875 67.917969 C 189.546875 65.859375 190.335938 63.941406 191.054688 62.175781 C 191.789062 60.390625 192.382812 58.875 192.824219 57.628906 C 193.28125 56.367188 193.519531 55.625 193.519531 55.386719 C 193.519531 54.613281 193.210938 53.96875 192.601562 53.460938 C 192.011719 52.957031 191.378906 52.65625 190.707031 52.546875 L 198 52.546875 C 196.988281 52.800781 196.152344 53.289062 195.507812 54 C 194.851562 54.71875 194.339844 55.539062 193.960938 56.460938 Z M 183.132812 82.753906 "/>
<path style=" stroke:none;fill-rule:nonzero;fill:rgb(13.333334%,13.333334%,13.333334%);fill-opacity:1;" d="M 210.628906 87.015625 C 212.902344 87.015625 215.117188 86.496094 217.289062 85.4375 C 219.449219 84.363281 221.082031 82.800781 222.179688 80.734375 L 220.539062 87.585938 L 196.773438 87.585938 C 197.820312 87.253906 198.515625 86.636719 198.855469 85.753906 C 199.1875 84.855469 199.359375 83.921875 199.359375 82.976562 L 199.359375 56.585938 C 199.359375 55.640625 199.1875 54.75 198.855469 53.90625 C 198.515625 53.066406 197.820312 52.5 196.773438 52.199219 L 220.035156 52.199219 L 221.484375 58.988281 C 220.367188 56.863281 218.882812 55.292969 217.035156 54.28125 C 215.179688 53.273438 213.074219 52.769531 210.722656 52.769531 L 203.78125 52.769531 L 203.78125 69.308594 L 208.261719 69.308594 C 209.5625 69.308594 210.761719 69.039062 211.859375 68.488281 C 212.972656 67.941406 213.722656 66.964844 214.101562 65.550781 L 214.101562 73.507812 C 213.722656 72.101562 212.972656 71.140625 211.859375 70.632812 C 210.761719 70.128906 209.5625 69.875 208.261719 69.875 L 203.78125 69.875 L 203.78125 87.015625 Z M 210.628906 87.015625 "/>
<path style=" stroke:none;fill-rule:nonzero;fill:rgb(13.333334%,13.333334%,13.333334%);fill-opacity:1;" d="M 227.679688 83.101562 C 227.679688 84.074219 227.867188 84.980469 228.246094 85.816406 C 228.640625 86.660156 229.320312 87.253906 230.265625 87.585938 L 220.734375 87.585938 C 221.746094 87.253906 222.417969 86.636719 222.753906 85.753906 C 223.085938 84.855469 223.261719 83.921875 223.261719 82.976562 L 223.261719 56.585938 C 223.261719 55.640625 223.085938 54.75 222.753906 53.90625 C 222.417969 53.066406 221.746094 52.5 220.734375 52.199219 L 233.011719 52.199219 C 234.757812 52.199219 236.460938 52.390625 238.125 52.769531 C 239.785156 53.148438 241.257812 53.769531 242.546875 54.628906 C 243.847656 55.476562 244.898438 56.578125 245.703125 57.945312 C 246.5 59.316406 246.902344 60.992188 246.902344 62.964844 C 246.902344 65.804688 246.03125 68.125 244.3125 69.90625 C 242.609375 71.675781 240.429688 72.875 237.777344 73.507812 L 244.375 84.113281 C 244.898438 84.894531 245.519531 85.597656 246.238281 86.226562 C 246.949219 86.84375 247.722656 87.292969 248.542969 87.585938 L 241.820312 87.585938 L 233.234375 73.632812 L 227.679688 73.632812 Z M 227.679688 73.128906 L 232.601562 73.128906 C 235.632812 73.128906 238.015625 72.195312 239.769531 70.320312 C 241.535156 68.449219 242.417969 65.992188 242.417969 62.964844 C 242.417969 59.792969 241.574219 57.296875 239.894531 55.484375 C 238.207031 53.675781 235.773438 52.769531 232.601562 52.769531 L 227.679688 52.769531 Z M 227.679688 73.128906 "/>
<path style=" stroke:none;fill-rule:nonzero;fill:rgb(13.333334%,13.333334%,13.333334%);fill-opacity:1;" d="M 271.308594 78.777344 C 271.308594 80.417969 270.945312 81.832031 270.234375 83.007812 C 269.539062 84.191406 268.632812 85.15625 267.519531 85.910156 C 266.421875 86.652344 265.167969 87.191406 263.765625 87.523438 C 262.375 87.851562 260.964844 88.027344 259.535156 88.027344 C 258.605469 88.027344 257.710938 87.902344 256.851562 87.648438 C 255.984375 87.417969 255.15625 87.175781 254.359375 86.921875 C 253.554688 86.652344 252.765625 86.402344 251.992188 86.164062 C 251.234375 85.910156 250.460938 85.785156 249.6875 85.785156 C 249.160156 85.785156 248.652344 85.9375 248.171875 86.226562 C 247.707031 86.503906 247.328125 86.859375 247.035156 87.300781 L 247.035156 76.378906 C 247.453125 77.640625 248.0625 78.929688 248.867188 80.230469 C 249.664062 81.515625 250.601562 82.683594 251.675781 83.734375 C 252.765625 84.769531 253.980469 85.621094 255.304688 86.289062 C 256.632812 86.96875 258.003906 87.300781 259.441406 87.300781 C 260.449219 87.300781 261.476562 87.199219 262.535156 86.984375 C 263.605469 86.757812 264.5625 86.386719 265.40625 85.878906 C 266.242188 85.375 266.9375 84.703125 267.488281 83.859375 C 268.058594 83.023438 268.339844 81.996094 268.339844 80.796875 C 268.339844 79.308594 267.835938 78.066406 266.824219 77.074219 C 265.816406 76.085938 264.554688 75.179688 263.039062 74.359375 C 261.523438 73.539062 259.867188 72.765625 258.082031 72.023438 C 256.292969 71.265625 254.644531 70.40625 253.128906 69.433594 C 251.613281 68.449219 250.351562 67.273438 249.339844 65.898438 C 248.332031 64.511719 247.824219 62.804688 247.824219 60.785156 C 247.824219 59.253906 248.117188 57.90625 248.710938 56.746094 C 249.316406 55.59375 250.113281 54.621094 251.109375 53.839844 C 252.09375 53.042969 253.238281 52.453125 254.546875 52.074219 C 255.851562 51.679688 257.214844 51.472656 258.652344 51.472656 C 259.613281 51.472656 260.527344 51.617188 261.398438 51.882812 C 262.257812 52.136719 263.054688 52.421875 263.796875 52.738281 C 264.554688 53.050781 265.246094 53.351562 265.878906 53.621094 C 266.511719 53.871094 267.03125 54 267.457031 54 C 268.128906 54 268.65625 53.800781 269.035156 53.398438 C 269.429688 52.980469 269.730469 52.507812 269.917969 51.980469 C 269.871094 53.476562 269.777344 54.960938 269.636719 56.429688 C 269.484375 57.90625 269.414062 59.382812 269.414062 60.847656 C 269.074219 59.710938 268.539062 58.625 267.804688 57.566406 C 267.085938 56.492188 266.242188 55.546875 265.28125 54.726562 C 264.332031 53.90625 263.273438 53.242188 262.125 52.738281 C 260.964844 52.230469 259.765625 51.980469 258.523438 51.980469 C 257.554688 51.980469 256.601562 52.121094 255.652344 52.390625 C 254.722656 52.640625 253.894531 53.019531 253.160156 53.527344 C 252.441406 54.03125 251.847656 54.6875 251.390625 55.484375 C 250.925781 56.289062 250.699219 57.210938 250.699219 58.261719 C 250.699219 59.800781 251.203125 61.09375 252.210938 62.144531 C 253.238281 63.175781 254.523438 64.125 256.0625 64.984375 C 257.59375 65.851562 259.234375 66.671875 260.988281 67.445312 C 262.753906 68.203125 264.402344 69.085938 265.941406 70.097656 C 267.472656 71.109375 268.75 72.308594 269.761719 73.695312 C 270.785156 75.070312 271.308594 76.757812 271.308594 78.777344 Z M 271.308594 78.777344 "/>
<path style=" stroke:none;fill-rule:nonzero;fill:rgb(13.333334%,13.333334%,13.333334%);fill-opacity:1;" d="M 283.121094 87.015625 C 285.394531 87.015625 287.613281 86.496094 289.78125 85.4375 C 291.945312 84.363281 293.578125 82.800781 294.675781 80.734375 L 293.03125 87.585938 L 269.265625 87.585938 C 270.316406 87.253906 271.011719 86.636719 271.347656 85.753906 C 271.679688 84.855469 271.855469 83.921875 271.855469 82.976562 L 271.855469 56.585938 C 271.855469 55.640625 271.679688 54.75 271.347656 53.90625 C 271.011719 53.066406 270.316406 52.5 269.265625 52.199219 L 292.527344 52.199219 L 293.980469 58.988281 C 292.859375 56.863281 291.375 55.292969 289.53125 54.28125 C 287.675781 53.273438 285.566406 52.769531 283.21875 52.769531 L 276.273438 52.769531 L 276.273438 69.308594 L 280.753906 69.308594 C 282.058594 69.308594 283.257812 69.039062 284.351562 68.488281 C 285.464844 67.941406 286.214844 66.964844 286.59375 65.550781 L 286.59375 73.507812 C 286.214844 72.101562 285.464844 71.140625 284.351562 70.632812 C 283.257812 70.128906 282.058594 69.875 280.753906 69.875 L 276.273438 69.875 L 276.273438 87.015625 Z M 283.121094 87.015625 "/>
<path style=" stroke:none;fill-rule:nonzero;fill:rgb(0%,0%,0%);fill-opacity:1;" d="M 42.796875 67.898438 L 26.859375 70.773438 L 38.378906 73.835938 C 39.300781 74.070312 40.035156 74.300781 40.589844 74.527344 C 41.132812 74.765625 41.675781 75.183594 42.230469 75.792969 C 42.796875 76.40625 43.082031 77.140625 43.082031 78 C 43.082031 80.738281 41.101562 82.886719 37.148438 84.441406 L 25.910156 72.003906 L 29.824219 88.386719 C 27.910156 89.886719 26.164062 90.628906 24.585938 90.628906 C 23.023438 90.628906 21.839844 90.3125 21.019531 89.679688 C 20.214844 89.046875 19.820312 88.15625 19.820312 86.996094 C 19.820312 85.820312 20.082031 84.457031 20.609375 82.894531 L 24.332031 71.910156 L 13.539062 84.441406 C 11.976562 83.871094 10.605469 83.042969 9.40625 81.945312 C 8.207031 80.832031 7.605469 79.578125 7.605469 78.191406 C 7.605469 76.785156 8.054688 75.792969 8.960938 75.222656 C 9.863281 74.640625 11.210938 74.109375 13.003906 73.644531 L 23.386719 70.773438 L 7.890625 67.898438 C 7.652344 66.976562 7.542969 65.863281 7.542969 64.554688 C 7.542969 63.25 7.898438 61.996094 8.617188 60.796875 C 9.347656 59.597656 10.414062 59 11.804688 59 C 12.726562 59 13.507812 59.25 14.140625 59.757812 C 14.785156 60.246094 15.605469 60.949219 16.601562 61.871094 L 24.523438 69.476562 L 20.671875 54.230469 C 22.582031 52.714844 24.316406 51.960938 25.878906 51.960938 C 27.457031 51.960938 28.65625 52.289062 29.476562 52.9375 C 30.300781 53.570312 30.710938 54.484375 30.710938 55.683594 C 30.710938 56.867188 30.332031 58.460938 29.574219 60.480469 L 26.164062 69.542969 L 33.929688 61.808594 C 35.773438 59.9375 37.410156 59 38.820312 59 C 40.25 59 41.324219 59.550781 42.039062 60.640625 C 42.773438 61.714844 43.144531 62.96875 43.144531 64.394531 C 43.144531 65.808594 43.027344 66.976562 42.796875 67.898438 Z M 42.796875 67.898438 "/>
</g>
</svg>
